<?xml version="1.0" encoding="UTF-8"?>
<svg xmlns="http://www.w3.org/2000/svg" xmlns:xlink="http://www.w3.org/1999/xlink" version="1.1" id="Vrstva_1" x="0px" y="0px" width="425.197px" height="85.83px" viewBox="0 0 425.197 85.83" xml:space="preserve">
<g>
	<g>
		<polygon fill="#F9A51A" points="21.165,21.165 21.165,42.329 10.583,52.91 0.001,42.329 0.001,21.165   "></polygon>
		<polygon fill="#F9A51A" points="42.327,0 52.909,10.583 42.327,21.164 21.164,21.164 21.164,0   "></polygon>
		<rect x="42.327" y="0" fill="#F68F2F" width="21.164" height="21.164"></rect>
		<rect y="42.328" fill="#F68F2F" width="21.164" height="21.164"></rect>
		<polygon fill="#F16347" points="63.491,63.492 74.072,74.074 63.491,84.654 42.327,84.654 31.745,74.074 42.327,63.492   "></polygon>
		<polygon fill="#F16347" points="84.654,42.328 84.654,63.492 74.072,74.074 63.491,63.492 63.491,42.328 74.072,31.746   "></polygon>
		<rect x="21.164" y="63.492" fill="#F37B3C" width="21.164" height="21.162"></rect>
		<rect x="63.491" y="63.492" fill="#EE454D" width="21.163" height="21.162"></rect>
		<rect x="63.491" y="21.164" fill="#F37B3C" width="21.163" height="21.164"></rect>
	</g>
	<path fill="#271551" d="M155.304,47.667l-9.609-2.357c-4.533-1.178-7.887-2.991-7.887-7.251c0-3.717,3.536-7.342,10.516-7.342   s10.878,3.897,11.693,8.339l10.968-3.082c-1.994-9.88-10.696-15.954-22.662-15.954c-13.959,0-22.209,8.43-22.209,18.039   c0,11.241,8.067,16.226,16.771,18.31l9.609,2.268c4.713,1.178,7.886,3.535,7.886,7.887c0,4.805-4.441,8.34-12.238,8.34   c-7.615,0-12.6-4.17-13.778-10.152l-10.878,3.262c2.176,10.516,10.969,17.857,24.656,17.857c15.591,0,24.113-9.064,24.113-19.307   C172.255,56.46,166.091,50.386,155.304,47.667z M202.918,58.183l-16.317-36.985h-12.328l17.585,38.435h5.167v25.02h11.784v-25.02   h4.986l17.768-38.435h-12.691L202.918,58.183z M271.527,83.201L259.56,21.198h-22.752v63.454h11.422V22.648l12.055,62.003h22.664   l12.057-62.003v62.003h11.422V21.198h-22.754L271.527,83.201z M331.324,21.198l-18.402,63.454h12.236l3.719-13.053h27.646   l3.717,13.053h12.238l-18.402-63.454H331.324z M331.958,60.541l10.695-37.892l10.789,37.892H331.958z M408.335,51.656   c11.875,0,16.861-7.07,16.861-14.413c0-8.703-6.889-16.045-19.309-16.045h-27.014v63.454h11.693v-22.48h12.965   c6.162,0,9.244,3.445,9.244,8.43v14.051h11.875V67.791C424.652,58.183,419.125,52.291,408.335,51.656z M403.351,51.294h-12.783   V32.076h12.602c6.254,0,10.063,4.26,10.063,9.518C413.232,47.125,408.88,51.294,403.351,51.294z"></path>
</g>
</svg>
